<?xml version="1.0" encoding="utf-8"?>
<!-- Generator: Adobe Illustrator 19.1.0, SVG Export Plug-In . SVG Version: 6.00 Build 0)  -->
<svg version="1.1" id="Layer_1" xmlns="http://www.w3.org/2000/svg" xmlns:xlink="http://www.w3.org/1999/xlink" x="0px" y="0px"
	 viewBox="-49 141 512 512" style="enable-background:new -49 141 512 512;" xml:space="preserve">
<style type="text/css">
	.st0{fill:#231F20;}
</style>
<g id="_x31_b1c9b208ed950244c86edd4d203b251">
	<path class="st0" d="M448,210.6l-54.5-54.5c-20-20-53.4-19.3-74.3,1.6L69.8,407l-1.9,1.9L10,466.7l2,2h0l-2-2l-13,13l0.1,0.1
		c-5.1,6.1-9.1,13.9-11.6,23.2l-32.1,91l-0.3,1.1c-4.2,16.2,0.1,32.8,11.5,44.2c11.4,11.4,27.9,15.7,44.2,11.5l92.2-32.4
		c9.3-2.5,17.2-6.5,23.2-11.6l0.1,0.1l13-13l-2-2h0l2,2l57.8-57.8l1.9-1.9l249.3-249.3C467.2,264,467.9,230.6,448,210.6z
		 M111.5,581.7c-1.5,4.9-7.5,9-16.5,11.3l-52.5,18.5l-49.2-52.4l17.3-49.1l0.3-1.1c2.3-8.9,6.5-14.9,11.3-16.5
		c5.4-1.7,13.1,1.7,20.4,9l59.9,59.9C109.9,568.6,113.2,576.3,111.5,581.7z"/>
</g>
</svg>
